<?xml version="1.0" encoding="utf-8"?>
<!-- Generator: Adobe Illustrator 21.0.0, SVG Export Plug-In . SVG Version: 6.00 Build 0)  -->
<svg version="1.1" id="Layer_1" xmlns="http://www.w3.org/2000/svg" xmlns:xlink="http://www.w3.org/1999/xlink" x="0px" y="0px"
	 viewBox="0 0 1481.1 383.3" style="enable-background:new 0 0 1481.1 383.3;" xml:space="preserve">
<style type="text/css">
	.st0{opacity:0.3;fill:url(#SVGID_1_);enable-background:new    ;}
	.st1{opacity:0.3;fill:url(#SVGID_2_);enable-background:new    ;}
	.st2{opacity:0.3;fill:url(#SVGID_3_);enable-background:new    ;}
	.st3{opacity:0.3;fill:url(#SVGID_4_);enable-background:new    ;}
	.st4{opacity:0.7;fill:url(#SVGID_5_);enable-background:new    ;}
	.st5{opacity:0.7;fill:url(#SVGID_6_);enable-background:new    ;}
	.st6{opacity:0.7;fill:url(#SVGID_7_);enable-background:new    ;}
	.st7{opacity:0.7;fill:url(#SVGID_8_);enable-background:new    ;}
	.st8{fill:url(#SVGID_9_);}
	.st9{fill:url(#SVGID_10_);}
	.st10{fill:url(#SVGID_11_);}
	.st11{fill:url(#SVGID_12_);}
	.st12{fill:#264780;}
	.st13{fill:#6AAEFF;}
</style>
<title>Logo</title>
<g>
	<g>
		
			<linearGradient id="SVGID_1_" gradientUnits="userSpaceOnUse" x1="223.8335" y1="-2879.7522" x2="342.0135" y2="-2880.8821" gradientTransform="matrix(1 0 0 -1 0 -2611.77)">
			<stop  offset="0" style="stop-color:#6AAEFF"/>
			<stop  offset="1" style="stop-color:#005EFF"/>
		</linearGradient>
		<path class="st0" d="M319.2,234.7l-0.4-0.4l-0.2,0.2l-61.8,29.6l58.3,38.1c3.8,2.5,8.9,1.4,11.4-2.4c0.9-1.3,1.3-2.8,1.3-4.4v-45
			C327.7,244.1,324.4,238.2,319.2,234.7z"/>
		
			<linearGradient id="SVGID_2_" gradientUnits="userSpaceOnUse" x1="149.4215" y1="-2851.8108" x2="78.7615" y2="-2892.1309" gradientTransform="matrix(1 0 0 -1 0 -2611.77)">
			<stop  offset="0.29" style="stop-color:#6AAEFF"/>
			<stop  offset="0.38" style="stop-color:#6AAEFF"/>
			<stop  offset="0.5" style="stop-color:#6AAEFF"/>
			<stop  offset="0.6312" style="stop-color:#6AAEFF"/>
			<stop  offset="0.78" style="stop-color:#6AAEFF"/>
			<stop  offset="0.94" style="stop-color:#6AAEFF"/>
			<stop  offset="1" style="stop-color:#6AAEFF"/>
		</linearGradient>
		<path class="st1" d="M98.4,231.2l-0.7,0.4c-5.2,2.5-8.5,7.7-8.5,13.4v50.8c0,3.5,2.9,6.4,6.4,6.4c1,0,1.9-0.2,2.8-0.7l63.3-30.4
			L98.4,231.2z"/>
		
			<linearGradient id="SVGID_3_" gradientUnits="userSpaceOnUse" x1="318.9128" y1="-2894.6633" x2="197.6228" y2="-2947.7732" gradientTransform="matrix(1 0 0 -1 0 -2611.77)">
			<stop  offset="0.4311" style="stop-color:#6AAEFF"/>
			<stop  offset="1" style="stop-color:#005EFF"/>
		</linearGradient>
		<path class="st2" d="M318.4,315.9l-115.5,55.4c-3.1,1.5-6.8,0.1-8.2-2.9c-0.4-0.8-0.6-1.7-0.6-2.6v-55.7c0-2.9,1.7-5.6,4.3-6.9
			l120.4-57.8c3.1-1.5,6.8-0.2,8.2,2.9c0.4,0.8,0.6,1.7,0.6,2.6v50.5C327.6,307.6,324,313.2,318.4,315.9z"/>
		
			<linearGradient id="SVGID_4_" gradientUnits="userSpaceOnUse" x1="40.3722" y1="-2918.0762" x2="215.8522" y2="-2919.7461" gradientTransform="matrix(1 0 0 -1 0 -2611.77)">
			<stop  offset="0" style="stop-color:#6AAEFF"/>
			<stop  offset="1" style="stop-color:#005EFF"/>
		</linearGradient>
		<path class="st3" d="M187.7,370.2l-96.3-60.8c-1.2-0.8-2-2.1-2-3.6v-58c0-2.3,1.9-4.2,4.3-4.2c0.8,0,1.6,0.2,2.3,0.7l96.4,60.9
			c1.2,0.8,2,2.1,2,3.6v58c0,2.3-1.9,4.2-4.3,4.2C189.2,370.9,188.4,370.7,187.7,370.2z"/>
		
			<linearGradient id="SVGID_5_" gradientUnits="userSpaceOnUse" x1="223.8329" y1="-2798.3601" x2="342.0131" y2="-2799.4802" gradientTransform="matrix(1 0 0 -1 0 -2611.77)">
			<stop  offset="0" style="stop-color:#6AAEFF"/>
			<stop  offset="1" style="stop-color:#005EFF"/>
		</linearGradient>
		<path class="st4" d="M319.2,153.3l-0.4-0.4l-0.2,0.2l-61.8,29.6l58.3,38.1c3.8,2.5,8.9,1.4,11.4-2.4c0.9-1.3,1.3-2.8,1.3-4.4
			v-45.1C327.7,162.6,324.4,156.8,319.2,153.3z"/>
		
			<linearGradient id="SVGID_6_" gradientUnits="userSpaceOnUse" x1="149.4431" y1="-2770.3984" x2="78.7831" y2="-2810.7185" gradientTransform="matrix(1 0 0 -1 0 -2611.77)">
			<stop  offset="0.29" style="stop-color:#6AAEFF"/>
			<stop  offset="0.38" style="stop-color:#6AAEFF"/>
			<stop  offset="0.5" style="stop-color:#6AAEFF"/>
			<stop  offset="0.6312" style="stop-color:#6AAEFF"/>
			<stop  offset="0.78" style="stop-color:#6AAEFF"/>
			<stop  offset="0.94" style="stop-color:#6AAEFF"/>
			<stop  offset="1" style="stop-color:#6AAEFF"/>
		</linearGradient>
		<path class="st5" d="M98.4,149.8l-0.7,0.4c-5.2,2.5-8.5,7.7-8.5,13.4v50.8c0,3.5,2.9,6.4,6.4,6.4c1,0,1.9-0.2,2.8-0.7l63.3-30.4
			L98.4,149.8z"/>
		
			<linearGradient id="SVGID_7_" gradientUnits="userSpaceOnUse" x1="318.8797" y1="-2813.1277" x2="197.5898" y2="-2866.2378" gradientTransform="matrix(1 0 0 -1 0 -2611.77)">
			<stop  offset="0.4311" style="stop-color:#6AAEFF"/>
			<stop  offset="1" style="stop-color:#005EFF"/>
		</linearGradient>
		<path class="st6" d="M318.4,234.4l-115.5,55.3c-3.1,1.5-6.8,0.2-8.2-2.9c-0.4-0.8-0.6-1.7-0.6-2.6v-55.7c0-2.9,1.7-5.6,4.3-6.9
			l120.4-57.7c3.1-1.5,6.8-0.2,8.2,2.9c0.4,0.8,0.6,1.7,0.6,2.6v50.4C327.7,226.1,324.1,231.8,318.4,234.4z"/>
		
			<linearGradient id="SVGID_8_" gradientUnits="userSpaceOnUse" x1="40.373" y1="-2836.5266" x2="215.8531" y2="-2838.1965" gradientTransform="matrix(1 0 0 -1 0 -2611.77)">
			<stop  offset="0" style="stop-color:#6AAEFF"/>
			<stop  offset="1" style="stop-color:#005EFF"/>
		</linearGradient>
		<path class="st7" d="M187.7,288.8l-96.3-60.9c-1.2-0.8-2-2.1-2-3.6v-58c0-2.3,1.9-4.3,4.2-4.3c0.8,0,1.6,0.2,2.3,0.7l96.4,60.9
			c1.2,0.8,2,2.1,2,3.6v58c0,2.3-1.9,4.3-4.2,4.3C189.2,289.4,188.4,289.2,187.7,288.8z"/>
		
			<linearGradient id="SVGID_9_" gradientUnits="userSpaceOnUse" x1="175.3026" y1="-2687.2473" x2="348.9626" y2="-2688.8975" gradientTransform="matrix(1 0 0 -1 0 -2611.77)">
			<stop  offset="0" style="stop-color:#6AAEFF"/>
			<stop  offset="1" style="stop-color:#005EFF"/>
		</linearGradient>
		<path class="st8" d="M223.9,80.1l91.1,59.4c3.8,2.5,8.9,1.4,11.4-2.4c0.9-1.3,1.3-2.8,1.3-4.4v-45c0-6.3-3.2-12.2-8.5-15.6
			l-91.4-59.7c-1.1-0.7-2.6-0.4-3.3,0.7c-0.3,0.4-0.4,0.8-0.4,1.3v65.7H223.9z"/>
		
			<linearGradient id="SVGID_10_" gradientUnits="userSpaceOnUse" x1="318.918" y1="-2731.8596" x2="197.628" y2="-2784.9595" gradientTransform="matrix(1 0 0 -1 0 -2611.77)">
			<stop  offset="0.4311" style="stop-color:#6AAEFF"/>
			<stop  offset="1" style="stop-color:#005EFF"/>
		</linearGradient>
		<path class="st9" d="M318.4,153.1L203,208.4c-3.1,1.5-6.8,0.2-8.2-2.9c-0.4-0.8-0.6-1.7-0.6-2.6v-60.5l124.7-59.8
			c3.1-1.5,6.8-0.2,8.2,2.9c0.4,0.8,0.6,1.7,0.6,2.6v50.4C327.5,144.7,324,150.3,318.4,153.1z"/>
		
			<linearGradient id="SVGID_11_" gradientUnits="userSpaceOnUse" x1="248.8697" y1="-2637.6277" x2="80.1698" y2="-2733.8975" gradientTransform="matrix(1 0 0 -1 0 -2611.77)">
			<stop  offset="0.29" style="stop-color:#6AAEFF"/>
			<stop  offset="0.38" style="stop-color:#6AAEFF"/>
			<stop  offset="0.5" style="stop-color:#6AAEFF"/>
			<stop  offset="0.6312" style="stop-color:#6AAEFF"/>
			<stop  offset="0.78" style="stop-color:#6AAEFF"/>
			<stop  offset="0.94" style="stop-color:#6AAEFF"/>
			<stop  offset="1" style="stop-color:#6AAEFF"/>
		</linearGradient>
		<path class="st10" d="M223.9,81L99.5,140.6c-3.2,1.5-7.1,0.2-8.6-3.1c-0.4-0.8-0.6-1.7-0.6-2.6V84.1c0-5.7,3.3-10.9,8.5-13.4
			l119.4-57.3l3.3-1.5c1.6-0.7,3.4-0.6,4.8,0.4l3.1,2h-0.9c-2.4,0-4.4,2-4.4,4.4v62.2L223.9,81z"/>
		
			<linearGradient id="SVGID_12_" gradientUnits="userSpaceOnUse" x1="40.4135" y1="-2755.2297" x2="215.8235" y2="-2756.8997" gradientTransform="matrix(1 0 0 -1 0 -2611.77)">
			<stop  offset="0" style="stop-color:#6AAEFF"/>
			<stop  offset="1" style="stop-color:#005EFF"/>
		</linearGradient>
		<path class="st11" d="M185.8,206.3l-93.9-59.2c-1.6-1-2.6-2.7-2.6-4.6V87.4c0-3,2.4-5.5,5.4-5.5c1.1,0,2.2,0.3,3.1,0.9l93.8,59.2
			c1.6,1,2.6,2.7,2.6,4.6v55c-0.1,3.1-2.7,5.5-5.7,5.4C187.6,207,186.6,206.8,185.8,206.3z"/>
	</g>
	<g>
		<path class="st12" d="M569.3,70.8c9,4,15.9,9.7,20.7,17.2c4.8,7.5,7.2,16.4,7.2,26.6c0,10.1-2.4,19-7.2,26.5s-11.7,13.3-20.7,17.3
			s-19.6,6-31.7,6H506v40.5h-26V64.8h57.7C549.7,64.8,560.3,66.8,569.3,70.8z M562.2,135.3c5.9-4.8,8.8-11.7,8.8-20.6
			c0-8.9-2.9-15.8-8.8-20.6c-5.9-4.8-14.5-7.2-25.8-7.2H506v55.7h30.4C547.7,142.5,556.3,140.1,562.2,135.3z"/>
		<path class="st12" d="M696.9,108.1c8.3,7.5,12.5,18.9,12.5,34.1v62.7h-23.6v-13c-3.1,4.7-7.4,8.2-13.1,10.7
			c-5.7,2.5-12.5,3.7-20.5,3.7s-15-1.4-21-4.1s-10.6-6.5-13.9-11.4c-3.3-4.9-4.9-10.4-4.9-16.5c0-9.6,3.6-17.3,10.7-23.1
			s18.4-8.7,33.7-8.7h27.6v-1.6c0-7.5-2.2-13.2-6.7-17.2s-11.1-6-19.9-6c-6,0-11.9,0.9-17.7,2.8c-5.8,1.9-10.7,4.5-14.7,7.8
			l-9.8-18.2c5.6-4.3,12.3-7.5,20.2-9.8s16.2-3.4,25-3.4C676.5,96.8,688.5,100.6,696.9,108.1z M674,183.8c4.9-2.9,8.3-7,10.3-12.3
			v-12.4h-25.8c-14.4,0-21.6,4.7-21.6,14.2c0,4.5,1.8,8.1,5.4,10.8s8.6,4,15,4C663.6,188.1,669.1,186.7,674,183.8z"/>
		<path class="st12" d="M761.6,199.3c-8.8-4.7-15.7-11.2-20.6-19.5c-4.9-8.3-7.4-17.8-7.4-28.3s2.5-20,7.4-28.2
			c4.9-8.3,11.8-14.8,20.5-19.4c8.7-4.7,18.7-7,29.9-7c10.5,0,19.8,2.1,27.7,6.4c7.9,4.3,13.9,10.4,17.9,18.4l-19.2,11.2
			c-3.1-4.9-6.9-8.6-11.5-11.1s-9.6-3.7-15.1-3.7c-9.3,0-17.1,3-23.2,9.1c-6.1,6.1-9.2,14.2-9.2,24.3s3,18.3,9.1,24.3
			c6.1,6.1,13.8,9.1,23.3,9.1c5.5,0,10.5-1.2,15.1-3.7s8.4-6.2,11.5-11.1l19.2,11.2c-4.1,8-10.2,14.2-18.1,18.5
			c-7.9,4.3-17.1,6.5-27.5,6.5C780.4,206.4,770.4,204,761.6,199.3z"/>
		<path class="st12" d="M901.4,159.1l-18.6,17.6v28.2h-25V56.4h25v89.7L934.7,98h30L920,142.9l48.9,62.1h-30.4L901.4,159.1z"/>
		<path class="st12" d="M1080.9,159.5H997c1.5,7.9,5.3,14.1,11.5,18.7c6.2,4.6,13.9,6.9,23.1,6.9c11.7,0,21.4-3.9,29-11.6l13.4,15.4
			c-4.8,5.7-10.9,10.1-18.2,13c-7.3,2.9-15.6,4.4-24.8,4.4c-11.7,0-22.1-2.3-31-7c-8.9-4.7-15.9-11.2-20.7-19.5
			c-4.9-8.3-7.3-17.8-7.3-28.3c0-10.4,2.4-19.8,7.1-28.1c4.7-8.3,11.3-14.9,19.7-19.5c8.4-4.7,17.9-7,28.4-7
			c10.4,0,19.7,2.3,27.9,6.9c8.2,4.6,14.6,11.1,19.2,19.4c4.6,8.3,6.9,18,6.9,28.9C1081.3,153.8,1081.1,156.3,1080.9,159.5z
			 M1006.9,123.9c-5.5,4.7-8.9,11-10.1,18.9h60.7c-1.1-7.7-4.3-14-9.8-18.8s-12.3-7.2-20.4-7.2
			C1019.2,116.8,1012.4,119.2,1006.9,123.9z"/>
		<path class="st12" d="M1169.6,199.1c-2.9,2.4-6.5,4.2-10.7,5.4c-4.2,1.2-8.6,1.8-13.3,1.8c-11.8,0-20.8-3.1-27.2-9.2
			c-6.4-6.1-9.6-15.1-9.6-26.8v-51.5h-17.6v-20h17.6V74.4h25v24.4h28.6v20h-28.6v50.9c0,5.2,1.3,9.2,3.8,11.9s6.2,4.1,11,4.1
			c5.6,0,10.3-1.5,14-4.4L1169.6,199.1z"/>
		<path class="st12" d="M1296.8,172.5h-70.1l-13.8,32.4h-26.8l63.1-140.2h25.6l63.3,140.2h-27.2L1296.8,172.5z M1288.2,152.1
			l-26.4-61.3l-26.2,61.3H1288.2z"/>
		<path class="st12" d="M1355.9,64.8h26V205h-26V64.8z"/>
	</g>
	<g>
		<path class="st13" d="M535.1,257.5v57.7h-8.2v-25.7h-33.1v25.7h-8.2v-57.7h8.2v24.8h33.1v-24.8H535.1z"/>
		<path class="st13" d="M581,275.6c3.2,3,4.8,7.4,4.8,13.3v26.4h-7.5v-5.8c-1.3,2-3.2,3.6-5.6,4.7c-2.4,1.1-5.3,1.6-8.7,1.6
			c-4.9,0-8.8-1.2-11.7-3.5c-2.9-2.4-4.4-5.5-4.4-9.3c0-3.8,1.4-6.9,4.2-9.3c2.8-2.3,7.2-3.5,13.3-3.5h12.5v-1.6c0-3.4-1-6-3-7.8
			c-2-1.8-4.9-2.7-8.7-2.7c-2.6,0-5.1,0.4-7.6,1.3c-2.5,0.9-4.6,2-6.3,3.4l-3.3-5.9c2.3-1.8,4.9-3.2,8.1-4.2c3.1-1,6.5-1.4,10-1.4
			C573.2,271.1,577.8,272.6,581,275.6z M573.1,307.6c2.2-1.3,3.8-3.3,4.8-5.7v-6.1h-12.2c-6.7,0-10.1,2.3-10.1,6.8
			c0,2.2,0.9,3.9,2.6,5.2c1.7,1.3,4.1,1.9,7.1,1.9C568.3,309.6,570.9,308.9,573.1,307.6z"/>
		<path class="st13" d="M637,275.9c3.3,3.2,4.9,7.9,4.9,14.1v25.1H634V291c0-4.2-1-7.4-3-9.6c-2-2.1-4.9-3.2-8.7-3.2
			c-4.3,0-7.7,1.2-10.1,3.7c-2.5,2.5-3.7,6.1-3.7,10.8v22.5h-7.9v-43.7h7.6v6.6c1.6-2.3,3.7-4,6.5-5.2s5.8-1.8,9.3-1.8
			C629.3,271.1,633.8,272.7,637,275.9z"/>
		<path class="st13" d="M698,254.1v61.1h-7.6v-6.9c-1.8,2.4-4,4.3-6.7,5.5c-2.7,1.3-5.7,1.9-8.9,1.9c-4.2,0-8-0.9-11.4-2.8
			c-3.4-1.9-6-4.5-7.9-7.9c-1.9-3.4-2.8-7.3-2.8-11.7c0-4.4,0.9-8.3,2.8-11.6c1.9-3.3,4.5-6,7.9-7.8c3.3-1.9,7.1-2.8,11.4-2.8
			c3.1,0,6,0.6,8.7,1.8c2.6,1.2,4.8,2.9,6.6,5.2v-24.1H698z M683,306.8c2.3-1.3,4-3.1,5.3-5.4c1.3-2.3,1.9-5,1.9-8
			c0-3-0.6-5.7-1.9-8c-1.3-2.3-3-4.1-5.3-5.4c-2.3-1.3-4.8-1.9-7.5-1.9c-2.8,0-5.3,0.6-7.5,1.9c-2.2,1.3-4,3.1-5.3,5.4
			c-1.3,2.3-1.9,5-1.9,8c0,3,0.6,5.7,1.9,8c1.3,2.3,3,4.1,5.3,5.4c2.2,1.3,4.7,1.9,7.5,1.9C678.3,308.8,680.8,308.1,683,306.8z"/>
		<path class="st13" d="M715.2,314.3c-3.3-1-5.9-2.2-7.7-3.7l3.3-6.3c1.9,1.4,4.3,2.5,7,3.3c2.7,0.8,5.5,1.2,8.3,1.2
			c6.9,0,10.4-2,10.4-5.9c0-1.3-0.5-2.4-1.4-3.1c-0.9-0.8-2.1-1.3-3.5-1.7c-1.4-0.4-3.4-0.8-6-1.2c-3.5-0.5-6.4-1.2-8.6-1.9
			c-2.2-0.7-4.1-1.9-5.7-3.6c-1.6-1.7-2.4-4.1-2.4-7.2c0-4,1.6-7.1,4.9-9.5c3.3-2.4,7.7-3.6,13.3-3.6c2.9,0,5.8,0.4,8.7,1.1
			c2.9,0.7,5.3,1.7,7.2,2.9l-3.4,6.3c-3.6-2.3-7.8-3.5-12.6-3.5c-3.4,0-5.9,0.5-7.7,1.6c-1.8,1.1-2.6,2.6-2.6,4.4
			c0,1.4,0.5,2.6,1.5,3.4c1,0.8,2.2,1.4,3.7,1.8c1.5,0.4,3.5,0.8,6.1,1.3c3.5,0.6,6.4,1.2,8.5,1.9c2.2,0.7,4,1.9,5.6,3.5
			c1.5,1.6,2.3,4,2.3,6.9c0,4-1.7,7.1-5.1,9.4c-3.4,2.3-8,3.5-13.8,3.5C722,315.7,718.5,315.2,715.2,314.3z"/>
		<path class="st13" d="M751.5,289.2h22.2v6.8h-22.2V289.2z"/>
		<path class="st13" d="M793.7,312.8c-3.5-1.9-6.2-4.6-8.1-8c-2-3.4-2.9-7.2-2.9-11.5s1-8.1,2.9-11.5c1.9-3.4,4.7-6,8.1-7.9
			c3.5-1.9,7.4-2.8,11.7-2.8c4.3,0,8.2,0.9,11.7,2.8c3.4,1.9,6.1,4.5,8.1,7.9c1.9,3.4,2.9,7.2,2.9,11.5s-1,8.1-2.9,11.5
			c-2,3.4-4.6,6-8.1,8c-3.4,1.9-7.3,2.9-11.7,2.9C801,315.7,797.1,314.7,793.7,312.8z M812.9,306.8c2.2-1.3,4-3.1,5.2-5.4
			c1.3-2.3,1.9-5,1.9-8c0-3-0.6-5.7-1.9-8c-1.3-2.3-3-4.1-5.2-5.4c-2.2-1.3-4.7-1.9-7.5-1.9s-5.3,0.6-7.5,1.9
			c-2.2,1.3-4,3.1-5.3,5.4c-1.3,2.3-1.9,5-1.9,8c0,3,0.6,5.7,1.9,8c1.3,2.3,3,4.1,5.3,5.4c2.2,1.3,4.7,1.9,7.5,1.9
			S810.7,308.1,812.9,306.8z"/>
		<path class="st13" d="M847.9,267.7v3.8h12.7v6.5H848v37.2h-7.9V278h-7.4v-6.5h7.4v-3.9c0-4.3,1.3-7.8,3.8-10.3
			c2.5-2.5,6.1-3.8,10.6-3.8c1.8,0,3.4,0.2,4.9,0.7c1.5,0.4,2.9,1.1,4,1.9l-2.4,6c-1.8-1.4-3.8-2.1-6.1-2.1
			C850.2,260.1,847.9,262.6,847.9,267.7z"/>
		<path class="st13" d="M877,267.7v3.8h12.7v6.5h-12.5v37.2h-7.9V278h-7.4v-6.5h7.4v-3.9c0-4.3,1.3-7.8,3.8-10.3
			c2.5-2.5,6.1-3.8,10.6-3.8c1.8,0,3.4,0.2,4.9,0.7c1.5,0.4,2.9,1.1,4,1.9l-2.4,6c-1.8-1.4-3.8-2.1-6.1-2.1
			C879.3,260.1,877,262.6,877,267.7z"/>
		<path class="st13" d="M987,275.9c3.2,3.2,4.8,7.9,4.8,14.2v25.1h-7.9V291c0-4.2-1-7.4-2.9-9.6c-2-2.1-4.7-3.2-8.4-3.2
			c-4,0-7.2,1.2-9.6,3.7c-2.4,2.5-3.5,6.1-3.5,10.8v22.5h-7.9V291c0-4.2-1-7.4-2.9-9.6c-2-2.1-4.7-3.2-8.4-3.2c-4,0-7.2,1.2-9.6,3.7
			c-2.4,2.5-3.5,6.1-3.5,10.8v22.5h-7.9v-43.7h7.6v6.5c1.6-2.3,3.7-4,6.3-5.1c2.6-1.2,5.5-1.8,8.8-1.8c3.4,0,6.4,0.7,9.1,2.1
			c2.6,1.4,4.7,3.4,6.1,6c1.6-2.5,3.9-4.5,6.9-5.9c2.9-1.4,6.2-2.1,9.9-2.1C979.4,271.1,983.8,272.7,987,275.9z"/>
		<path class="st13" d="M1013.6,312.8c-3.5-1.9-6.2-4.6-8.1-8c-2-3.4-2.9-7.2-2.9-11.5s1-8.1,2.9-11.5c1.9-3.4,4.7-6,8.1-7.9
			c3.5-1.9,7.4-2.8,11.7-2.8c4.3,0,8.2,0.9,11.7,2.8c3.4,1.9,6.1,4.5,8.1,7.9c1.9,3.4,2.9,7.2,2.9,11.5s-1,8.1-2.9,11.5
			c-2,3.4-4.6,6-8.1,8c-3.4,1.9-7.3,2.9-11.7,2.9C1021,315.7,1017.1,314.7,1013.6,312.8z M1032.9,306.8c2.2-1.3,4-3.1,5.2-5.4
			c1.3-2.3,1.9-5,1.9-8c0-3-0.6-5.7-1.9-8c-1.3-2.3-3-4.1-5.2-5.4c-2.2-1.3-4.7-1.9-7.5-1.9c-2.8,0-5.3,0.6-7.5,1.9
			c-2.2,1.3-4,3.1-5.3,5.4c-1.3,2.3-1.9,5-1.9,8c0,3,0.6,5.7,1.9,8c1.3,2.3,3,4.1,5.3,5.4c2.2,1.3,4.7,1.9,7.5,1.9
			C1028.1,308.8,1030.6,308.1,1032.9,306.8z"/>
		<path class="st13" d="M1095.5,275.9c3.3,3.2,4.9,7.9,4.9,14.1v25.1h-7.9V291c0-4.2-1-7.4-3-9.6c-2-2.1-4.9-3.2-8.7-3.2
			c-4.3,0-7.7,1.2-10.1,3.7c-2.5,2.5-3.7,6.1-3.7,10.8v22.5h-7.9v-43.7h7.6v6.6c1.6-2.3,3.7-4,6.5-5.2c2.7-1.2,5.8-1.8,9.3-1.8
			C1087.8,271.1,1092.2,272.7,1095.5,275.9z"/>
		<path class="st13" d="M1115.2,261.6c-1-1-1.5-2.2-1.5-3.6c0-1.4,0.5-2.6,1.5-3.7c1-1,2.3-1.5,3.8-1.5c1.5,0,2.8,0.5,3.8,1.4
			c1,1,1.5,2.2,1.5,3.6c0,1.5-0.5,2.7-1.5,3.7c-1,1-2.3,1.5-3.8,1.5C1117.5,263.1,1116.2,262.6,1115.2,261.6z M1115.1,271.5h7.9
			v43.7h-7.9V271.5z"/>
		<path class="st13" d="M1162.6,312.6c-1.2,1-2.6,1.7-4.3,2.3c-1.7,0.5-3.5,0.8-5.3,0.8c-4.4,0-7.8-1.2-10.2-3.5
			c-2.4-2.4-3.6-5.7-3.6-10.1v-24h-7.4v-6.5h7.4V262h7.9v9.6h12.5v6.5h-12.5v23.6c0,2.4,0.6,4.2,1.8,5.4c1.2,1.3,2.9,1.9,5.1,1.9
			c2.4,0,4.5-0.7,6.2-2.1L1162.6,312.6z"/>
		<path class="st13" d="M1177.7,312.8c-3.5-1.9-6.2-4.6-8.1-8c-2-3.4-2.9-7.2-2.9-11.5s1-8.1,2.9-11.5c1.9-3.4,4.7-6,8.1-7.9
			c3.5-1.9,7.4-2.8,11.7-2.8c4.3,0,8.2,0.9,11.7,2.8c3.4,1.9,6.1,4.5,8.1,7.9c1.9,3.4,2.9,7.2,2.9,11.5s-1,8.1-2.9,11.5
			c-2,3.4-4.6,6-8.1,8c-3.4,1.9-7.3,2.9-11.7,2.9C1185,315.7,1181.1,314.7,1177.7,312.8z M1196.9,306.8c2.2-1.3,4-3.1,5.2-5.4
			c1.3-2.3,1.9-5,1.9-8c0-3-0.6-5.7-1.9-8c-1.3-2.3-3-4.1-5.2-5.4c-2.2-1.3-4.7-1.9-7.5-1.9s-5.3,0.6-7.5,1.9
			c-2.2,1.3-4,3.1-5.3,5.4c-1.3,2.3-1.9,5-1.9,8c0,3,0.6,5.7,1.9,8c1.3,2.3,3,4.1,5.3,5.4c2.2,1.3,4.7,1.9,7.5,1.9
			S1194.7,308.1,1196.9,306.8z"/>
		<path class="st13" d="M1236.6,273.1c2.7-1.3,6-2,9.8-2v7.7c-0.4-0.1-1-0.1-1.8-0.1c-4.3,0-7.6,1.3-10.1,3.8
			c-2.4,2.6-3.7,6.2-3.7,10.9v21.7h-7.9v-43.7h7.6v7.3C1231.9,276.3,1234,274.4,1236.6,273.1z"/>
		<path class="st13" d="M1256.3,261.6c-1-1-1.5-2.2-1.5-3.6c0-1.4,0.5-2.6,1.5-3.7c1-1,2.3-1.5,3.8-1.5c1.5,0,2.8,0.5,3.8,1.4
			c1,1,1.5,2.2,1.5,3.6c0,1.5-0.5,2.7-1.5,3.7c-1,1-2.3,1.5-3.8,1.5C1258.6,263.1,1257.3,262.6,1256.3,261.6z M1256.2,271.5h7.9
			v43.7h-7.9V271.5z"/>
		<path class="st13" d="M1315.7,275.9c3.3,3.2,4.9,7.9,4.9,14.1v25.1h-7.9V291c0-4.2-1-7.4-3-9.6c-2-2.1-4.9-3.2-8.7-3.2
			c-4.3,0-7.7,1.2-10.1,3.7c-2.5,2.5-3.7,6.1-3.7,10.8v22.5h-7.9v-43.7h7.6v6.6c1.6-2.3,3.7-4,6.5-5.2c2.7-1.2,5.8-1.8,9.3-1.8
			C1308,271.1,1312.4,272.7,1315.7,275.9z"/>
		<path class="st13" d="M1377.3,271.5v37.7c0,7.6-1.9,13.3-5.7,16.9c-3.8,3.7-9.4,5.5-17,5.5c-4.1,0-8-0.6-11.8-1.7
			c-3.7-1.1-6.8-2.7-9.1-4.8l3.8-6.1c2,1.8,4.5,3.1,7.5,4.2c3,1,6.1,1.5,9.3,1.5c5.1,0,8.9-1.2,11.3-3.6c2.4-2.4,3.7-6.1,3.7-11
			v-3.5c-1.9,2.3-4.2,3.9-6.9,5.1c-2.7,1.1-5.7,1.7-8.9,1.7c-4.2,0-7.9-0.9-11.3-2.7c-3.4-1.8-6-4.3-8-7.5c-1.9-3.2-2.9-6.9-2.9-11
			s1-7.8,2.9-11c1.9-3.2,4.6-5.7,8-7.5c3.4-1.8,7.2-2.6,11.3-2.6c3.3,0,6.4,0.6,9.2,1.8c2.8,1.2,5.1,3,7,5.4v-6.8H1377.3z
			 M1362.2,304.7c2.3-1.2,4.1-2.9,5.4-5.1c1.3-2.2,1.9-4.6,1.9-7.4c0-4.2-1.4-7.6-4.2-10.3c-2.8-2.6-6.4-3.9-10.8-3.9
			c-4.4,0-8.1,1.3-10.9,3.9c-2.8,2.6-4.2,6-4.2,10.3c0,2.7,0.6,5.2,1.9,7.4c1.3,2.2,3.1,3.9,5.4,5.1c2.3,1.2,4.9,1.8,7.8,1.8
			C1357.4,306.5,1360,305.9,1362.2,304.7z"/>
	</g>
</g>
</svg>
